<?xml version="1.0" standalone="no"?>
<!DOCTYPE svg PUBLIC "-//W3C//DTD SVG 20010904//EN"
 "http://www.w3.org/TR/2001/REC-SVG-20010904/DTD/svg10.dtd">
<svg version="1.0" xmlns="http://www.w3.org/2000/svg"
 width="882.000000pt" height="800.000000pt" viewBox="0 0 882.000000 800.000000"
 preserveAspectRatio="xMidYMid meet">

<g transform="translate(0.000000,800.000000) scale(0.100000,-0.100000)"
fill="#000000" stroke="none">
<path d="M4106 7420 c-32 -5 -74 -19 -93 -30 -19 -11 -44 -20 -56 -20 -12 0
-52 -20 -89 -44 -37 -24 -83 -49 -101 -55 -19 -7 -45 -20 -56 -30 -12 -11 -30
-17 -41 -14 -15 4 -20 0 -20 -16 0 -12 -6 -21 -15 -21 -8 0 -22 -11 -31 -25
-10 -16 -26 -25 -43 -25 -14 0 -33 -5 -41 -10 -11 -7 -5 -8 20 -5 l35 6 -41
-23 c-23 -13 -60 -36 -84 -52 -23 -17 -55 -31 -70 -32 -37 -3 -53 -13 -46 -30
3 -8 -1 -17 -10 -21 -13 -5 -13 -8 -2 -15 9 -6 6 -7 -9 -3 -14 4 -29 0 -41
-12 -39 -38 -77 -63 -80 -53 -5 14 -58 -28 -87 -70 -29 -41 -85 -181 -85 -210
0 -11 -8 -24 -18 -29 -27 -14 -67 -94 -100 -201 -41 -131 -41 -130 -32 -360
11 -248 37 -407 72 -430 12 -8 36 -27 52 -42 17 -16 37 -28 45 -28 7 0 28 -9
47 -20 41 -26 52 -67 28 -107 -14 -24 -12 -23 20 9 l37 37 57 -25 c112 -51
124 -55 117 -43 -6 8 11 10 66 5 130 -12 151 -16 145 -33 -3 -8 -6 -21 -6 -29
0 -12 -9 -14 -37 -9 l-38 6 35 -18 c39 -20 54 -62 22 -64 -13 0 -12 -2 6 -9
12 -5 22 -18 22 -29 0 -18 17 -38 25 -30 1 2 -2 31 -7 65 -12 69 4 195 26 214
14 10 178 30 251 29 l40 0 -55 -15 c-59 -16 -120 -48 -188 -100 -24 -18 -48
-34 -54 -36 -6 -2 -10 -17 -10 -33 0 -86 5 -91 36 -48 15 20 17 28 7 31 -15 5
27 45 70 67 38 20 118 21 164 1 30 -13 62 -17 132 -14 50 1 95 -1 100 -5 10
-11 -16 -27 -44 -27 -12 0 -29 -7 -37 -16 -9 -8 -22 -13 -29 -11 -9 4 -9 6 1
6 7 1 10 6 7 11 -8 13 -45 13 -65 0 -13 -8 -11 -11 8 -16 12 -4 22 -9 22 -13
-1 -18 -40 -53 -63 -55 -15 -2 -40 -17 -56 -34 -16 -16 -32 -28 -35 -24 -3 3
-6 0 -6 -6 0 -7 -8 -12 -17 -12 -32 -1 11 -20 58 -26 46 -7 181 12 214 29 11
6 25 12 30 13 6 0 15 2 20 3 6 1 25 15 44 31 18 17 38 30 42 30 5 0 9 7 9 16
0 9 8 22 17 29 15 11 14 14 -15 29 -18 9 -30 21 -27 27 4 5 10 7 15 4 15 -9
41 7 36 22 -4 11 -1 13 14 8 15 -5 20 -2 20 13 0 26 -25 46 -90 70 -30 12 -50
21 -43 21 27 2 124 -42 133 -59 14 -26 12 -113 -4 -187 -7 -34 -11 -65 -8 -68
13 -13 22 -2 27 33 13 76 51 149 74 140 5 -2 4 -14 -1 -28 -7 -18 -11 -21 -17
-11 -9 14 -24 -25 -25 -69 -1 -22 -19 -57 -72 -140 -9 -14 6 -2 32 26 35 35
54 67 67 106 9 30 26 63 38 73 18 17 24 17 52 6 18 -7 52 -17 77 -21 68 -12
100 -30 106 -59 3 -14 7 -31 9 -38 2 -6 -1 -13 -7 -15 -12 -4 -17 -148 -5
-148 5 0 6 -8 3 -18 -4 -10 -2 -40 4 -68 6 -27 12 -59 14 -72 2 -13 13 -33 25
-46 20 -21 20 -24 5 -54 -8 -18 -18 -48 -20 -68 -8 -68 -39 -103 -89 -104 -33
0 -109 -55 -100 -71 10 -15 -7 -10 -27 8 -10 9 -21 13 -26 8 -4 -4 -1 -10 6
-12 6 -3 12 -10 12 -17 0 -6 14 -17 31 -23 22 -9 30 -17 25 -28 -4 -13 -2 -14
14 -5 31 17 101 -34 113 -82 5 -20 1 -28 -20 -39 -36 -19 -173 -16 -257 6 -18
5 -31 4 -35 -4 -6 -9 -24 -9 -71 -2 -35 6 -66 8 -70 6 -10 -6 -168 23 -192 36
-12 6 -31 22 -43 35 -12 13 -30 24 -39 24 -9 0 -16 7 -16 15 0 8 -5 15 -11 15
-7 0 -9 10 -5 25 7 29 3 31 -18 9 -9 -8 -16 -11 -16 -7 0 9 45 53 54 53 6 0
75 63 150 137 55 53 76 81 83 112 10 36 9 41 -6 41 -10 0 -26 -7 -37 -15 -10
-8 -27 -15 -36 -15 -10 0 -18 -4 -18 -10 0 -5 -11 -10 -24 -10 -13 0 -26 -3
-28 -7 -1 -5 -29 -25 -60 -46 -32 -20 -58 -42 -58 -47 0 -6 -5 -10 -11 -10 -6
0 -26 -12 -43 -27 -18 -16 -44 -37 -57 -48 -14 -11 -30 -32 -37 -47 -8 -21
-16 -26 -29 -21 -15 6 -16 4 -6 -8 8 -9 9 -20 3 -29 -14 -22 -12 -40 3 -34 9
3 12 -7 9 -38 l-4 -43 37 43 c50 57 69 67 106 52 l29 -12 -21 -19 c-18 -15
-19 -20 -7 -24 10 -4 13 -15 10 -30 -3 -17 4 -31 22 -48 14 -13 29 -34 34 -47
l9 -24 27 27 c26 26 29 27 54 12 15 -8 38 -20 52 -25 14 -6 41 -19 60 -30 l35
-18 5 31 c4 25 9 31 25 29 11 -2 26 -9 32 -14 7 -6 22 -8 34 -5 12 3 33 1 48
-5 14 -5 49 -12 77 -14 55 -4 120 -27 126 -44 2 -8 11 -8 30 -1 15 6 30 7 32
2 3 -5 21 -7 41 -5 19 1 35 -2 35 -7 0 -5 -12 -10 -27 -11 -42 -2 -47 -3 -60
-11 -7 -5 -19 -5 -25 0 -7 4 -43 6 -79 4 -37 -1 -75 2 -85 8 -11 5 -40 13 -66
16 -27 3 -48 10 -48 16 0 5 -7 9 -15 9 -33 0 -11 -16 51 -38 79 -28 216 -52
296 -52 66 0 88 -7 88 -26 0 -8 7 -14 16 -14 20 0 13 -20 -12 -34 -10 -6 -21
-14 -24 -18 -3 -4 -24 -7 -45 -7 -22 1 -51 1 -64 0 -24 -1 -24 -1 -5 -16 17
-13 17 -14 2 -15 -9 0 -19 4 -23 9 -6 11 -59 8 -87 -4 -20 -8 -46 -55 -40 -73
2 -7 13 -12 23 -12 27 0 14 -20 -14 -21 -17 -1 -18 -2 -4 -6 9 -2 15 -9 12
-14 -4 -5 1 -9 9 -9 9 0 16 -5 16 -11 0 -6 9 -9 20 -6 11 3 18 2 15 -3 -7 -12
24 -21 43 -12 31 14 51 7 82 -27 23 -25 39 -33 66 -34 33 -1 35 -3 30 -28 -5
-27 14 -46 34 -34 5 3 12 0 16 -6 9 -15 -23 -39 -42 -32 -8 3 -14 -1 -14 -10
0 -8 -10 -17 -22 -21 -15 -4 -19 -9 -11 -14 18 -11 4 -59 -27 -92 -32 -35 -60
-39 -60 -10 0 11 5 20 10 20 6 0 10 5 10 10 0 21 -19 9 -39 -25 -11 -19 -27
-35 -36 -35 -9 0 -13 -5 -10 -10 4 -7 -5 -9 -25 -5 -20 4 -29 2 -25 -5 3 -5 1
-10 -5 -10 -7 0 -9 8 -5 20 9 29 -13 25 -26 -4 -11 -24 -35 -36 -74 -36 -18 0
-18 1 3 16 12 8 22 22 22 31 0 20 -41 10 -80 -18 -28 -21 -30 -21 -129 -3 -20
4 -48 22 -70 44 -45 45 -91 77 -91 61 0 -6 7 -14 15 -17 8 -4 15 -10 15 -15 0
-13 55 -69 67 -69 16 0 46 -38 39 -49 -4 -6 -18 -6 -37 -1 -27 8 -29 7 -24
-11 5 -15 2 -19 -19 -19 -14 0 -26 -5 -26 -11 0 -5 -5 -7 -12 -3 -8 5 -9 2 -5
-9 4 -11 1 -17 -9 -17 -8 0 -12 -4 -9 -10 4 -6 13 -6 25 0 11 6 29 15 40 20
26 13 28 13 26 -7 -1 -12 5 -17 17 -15 10 2 17 -3 17 -12 0 -21 18 -30 35 -16
11 9 14 7 12 -9 -1 -12 -5 -21 -9 -21 -4 0 -8 -6 -8 -14 0 -14 28 -15 49 -2 5
4 7 -3 4 -14 -3 -11 -10 -20 -17 -20 -6 0 -2 -6 9 -12 36 -21 59 -60 61 -102
0 -23 4 -56 8 -73 6 -26 4 -33 -8 -33 -9 0 -16 -6 -16 -13 0 -8 -13 -25 -28
-39 -22 -19 -32 -22 -45 -14 -22 14 -37 -2 -15 -17 9 -7 25 -18 35 -25 10 -7
4 -6 -13 2 -17 8 -54 39 -83 69 -51 53 -54 54 -87 46 -33 -10 -70 1 -84 22 -3
5 -53 16 -110 25 -58 9 -120 23 -138 31 -31 15 -34 14 -48 -3 -24 -32 -39 -74
-64 -183 -31 -140 -25 -301 20 -521 54 -264 51 -356 -15 -533 -19 -50 -32 -93
-29 -96 11 -11 40 17 61 58 12 23 30 54 40 69 33 50 43 74 43 104 0 44 28 83
120 167 44 41 80 81 80 89 0 21 47 62 71 62 16 0 24 11 17 24 -2 2 13 18 32
35 19 16 37 26 38 21 2 -6 8 -10 13 -10 6 0 7 5 4 10 -3 6 -1 10 4 10 6 0 11
-5 11 -11 0 -6 9 -9 20 -6 11 3 20 1 20 -4 0 -5 10 -9 21 -9 12 0 31 -10 43
-22 l21 -23 -28 -89 c-15 -48 -30 -108 -34 -132 -6 -48 -3 -49 55 -21 16 8 25
8 34 -1 16 -16 -49 -122 -84 -136 -16 -6 -28 -16 -28 -23 0 -7 -4 -13 -9 -13
-11 0 -26 -67 -47 -209 l-16 -104 23 -21 c18 -17 21 -18 16 -3 -4 10 -1 17 6
17 15 0 51 45 61 76 3 12 24 40 46 64 22 24 42 51 45 61 6 18 10 20 81 38 53
14 77 42 84 98 3 27 11 48 19 51 8 3 11 0 7 -7 -5 -7 2 -12 16 -12 72 -5 91
-9 115 -24 24 -16 25 -20 17 -69 -11 -68 -9 -159 4 -182 9 -17 11 -16 17 9 4
16 5 45 1 65 -3 20 -1 62 5 93 9 46 16 59 38 70 14 7 28 13 31 14 3 0 32 13
65 28 33 16 83 38 110 50 28 12 75 34 105 49 l55 28 3 -46 c3 -46 -10 -74 -33
-74 -11 0 -45 -41 -45 -55 0 -12 26 -3 47 17 l23 22 16 -22 c21 -30 39 -28 96
14 27 19 61 39 75 45 14 5 37 18 52 28 14 10 60 27 101 36 41 10 80 21 85 25
17 13 156 30 258 32 15 1 27 5 27 10 0 5 8 8 18 7 9 -1 30 3 45 10 16 6 32 9
37 6 5 -3 11 -1 15 5 7 11 57 5 85 -10 11 -6 21 -5 28 2 9 9 12 8 12 -5 0 -21
19 -23 26 -2 5 12 12 11 42 -5 20 -11 45 -20 54 -20 10 0 18 -5 18 -11 0 -5 5
-7 10 -4 6 3 11 -1 11 -9 1 -9 3 -20 4 -26 1 -5 3 -13 4 -17 0 -4 7 2 15 13
14 18 16 18 33 1 9 -9 13 -17 7 -17 -8 0 -9 -15 -5 -64 1 -5 7 -3 15 3 11 10
19 7 35 -10 18 -19 23 -21 34 -9 9 10 9 12 0 6 -16 -9 -16 -1 -2 26 9 17 13
18 20 7 7 -11 9 -10 9 4 0 9 -7 17 -17 17 -9 0 -13 3 -9 7 19 20 68 -9 59 -33
-3 -8 0 -14 6 -14 17 0 26 31 12 40 -9 5 -8 9 5 14 9 3 19 4 22 1 3 -3 -1 -5
-8 -5 -9 0 -8 -6 5 -20 9 -10 15 -26 12 -35 -4 -8 -2 -15 3 -15 6 0 10 9 10
20 0 32 21 69 36 63 8 -3 14 0 14 6 0 15 18 14 23 -1 2 -7 3 -5 1 5 -1 9 5 24
13 33 12 12 18 12 32 2 15 -12 15 -11 1 6 -12 15 -12 20 -2 23 6 3 9 10 6 15
-5 7 -2 8 5 3 15 -9 55 31 46 45 -3 6 -2 10 4 10 6 0 13 11 17 24 4 16 11 23
20 19 8 -3 14 0 14 6 0 6 7 11 16 11 8 0 12 5 9 10 -3 6 2 13 12 17 19 7 42
32 43 46 0 5 -5 5 -11 2 -6 -4 -5 2 3 14 7 12 17 21 21 21 5 0 6 7 3 16 -5 13
-3 14 6 6 17 -14 55 17 50 40 -5 23 21 23 44 1 13 -13 16 -14 12 -3 -3 9 6 22
21 32 14 10 27 22 27 28 1 5 2 17 3 26 1 11 7 15 21 11 13 -3 20 0 20 9 0 8 5
14 11 14 5 0 7 5 4 10 -5 8 -11 7 -21 -1 -8 -6 -17 -9 -20 -6 -9 9 6 28 17 22
5 -4 9 -2 9 3 0 6 9 8 20 5 11 -3 17 -9 14 -14 -3 -5 2 -16 10 -25 9 -8 16
-22 16 -29 0 -7 8 -22 18 -31 16 -17 16 -18 0 -11 -10 3 -18 2 -18 -4 0 -5 7
-12 15 -15 8 -4 13 -9 11 -13 -3 -4 -1 -13 4 -21 7 -12 14 -9 34 15 14 16 25
34 24 40 -5 26 33 74 64 80 48 11 78 51 55 74 -8 8 -8 11 0 11 6 0 18 -10 27
-22 13 -20 15 -20 9 -3 -6 17 -4 18 9 7 12 -10 21 -7 51 15 63 48 111 75 134
77 13 0 23 8 23 16 0 10 3 11 11 3 13 -13 51 -5 46 10 -2 6 -46 25 -98 42
-151 51 -191 66 -251 96 -53 27 -79 46 -43 33 29 -11 15 14 -15 28 -16 7 -30
16 -30 19 0 12 -186 158 -259 203 -96 59 -339 166 -466 205 -135 41 -237 58
-390 67 l-128 7 -110 54 c-60 30 -130 57 -154 60 -57 8 -71 29 -120 183 -19
63 -39 119 -44 124 -4 5 -5 15 -2 22 3 8 0 14 -7 14 -6 0 -9 4 -5 9 3 5 1 12
-5 16 -6 4 -8 11 -5 16 4 5 1 9 -4 9 -6 0 -11 19 -11 42 0 31 14 67 53 142 75
141 97 204 116 331 l16 109 33 7 c42 9 66 31 92 85 20 40 25 79 35 249 2 33 8
125 13 205 6 88 7 167 1 200 -13 83 -12 87 38 141 43 46 47 55 64 146 10 53
22 99 27 102 14 11 8 156 -8 176 -13 15 -12 19 7 35 19 15 21 23 13 49 -5 19
-5 31 1 31 5 0 -2 23 -16 51 -23 44 -46 128 -75 269 -12 60 -54 130 -132 220
-9 11 -13 42 -12 98 2 81 1 83 -36 130 -20 26 -45 63 -55 82 -9 19 -28 46 -41
60 -13 14 -43 47 -66 73 -23 27 -74 71 -113 99 -38 28 -83 63 -100 78 -73 64
-282 171 -392 201 -43 11 -96 26 -118 34 -108 35 -164 49 -210 50 -27 1 -93 5
-145 8 -52 3 -121 2 -154 -3z m-267 -183 c-21 -16 -21 -47 0 -39 12 4 12 7 2
10 -8 3 4 11 25 18 21 7 40 11 43 8 3 -3 -6 -8 -19 -11 -22 -6 -23 -7 -4 -14
18 -7 18 -8 0 -8 -11 -1 -34 -12 -52 -26 -18 -14 -40 -25 -49 -25 -9 0 -33 -9
-55 -20 -56 -29 -62 -25 -12 9 33 22 40 30 27 35 -11 4 -14 2 -9 -6 5 -7 2 -9
-8 -5 -9 3 -44 -8 -78 -24 -34 -16 -63 -29 -65 -29 -2 0 6 10 18 23 12 13 56
38 97 55 41 17 89 38 105 46 35 19 57 21 34 3z m678 -53 c-3 -3 -12 -4 -19 -1
-8 3 -5 6 6 6 11 1 17 -2 13 -5z m-677 -49 c0 -2 -21 -11 -47 -18 -26 -8 -52
-22 -57 -33 -6 -10 -16 -23 -22 -29 -13 -12 -26 -45 -18 -45 3 0 19 9 36 21
16 12 32 18 35 15 8 -7 12 -4 -61 -51 -33 -22 -75 -55 -95 -75 -44 -44 -94
-80 -113 -80 -14 1 15 27 76 70 38 27 47 43 19 33 -14 -5 -12 1 7 22 26 29 25
30 -27 8 -7 -3 -13 2 -13 10 0 9 10 19 23 23 24 7 148 90 157 105 3 4 24 13
45 18 51 11 55 12 55 6z m-290 -49 c0 -11 -191 -158 -197 -152 -7 7 74 77 136
118 58 39 61 41 61 34z m80 -36 c-14 -11 -31 -20 -38 -20 -7 0 -25 -6 -40 -14
-15 -7 -38 -17 -52 -21 -24 -8 -24 -7 5 17 17 14 53 32 80 41 68 20 74 20 45
-3z m280 -5 c-7 -8 -17 -15 -22 -15 -6 0 -5 7 2 15 7 8 17 15 22 15 6 0 5 -7
-2 -15z m-80 -36 c0 -5 -25 -25 -55 -44 -30 -20 -55 -40 -55 -46 0 -6 7 -6 20
1 19 10 20 9 9 -7 -6 -10 -44 -39 -85 -65 -71 -46 -102 -59 -89 -38 8 13 5 13
-44 -5 -49 -17 -53 -12 -8 11 17 9 42 26 55 37 18 16 25 18 31 9 6 -10 11 -10
21 3 11 13 10 14 -6 9 -37 -14 16 35 80 73 34 20 71 47 84 60 21 23 42 24 42
2z m10 -49 c0 -5 -5 -10 -11 -10 -5 0 -7 5 -4 10 3 6 8 10 11 10 2 0 4 -4 4
-10z m-425 -49 c-6 -5 -21 -12 -35 -15 -24 -7 -24 -6 -6 8 21 17 57 23 41 7z
m75 5 c0 -2 -9 -6 -20 -9 -11 -3 -18 -1 -14 4 5 9 34 13 34 5z m289 -15 c-13
-11 -26 -18 -28 -15 -7 7 21 34 36 34 10 0 8 -6 -8 -19z m82 1 c-13 -24 -38
-45 -91 -76 -68 -40 -172 -87 -184 -83 -6 2 4 10 22 18 18 7 32 17 32 21 0 12
-6 10 -55 -17 -59 -34 -58 -23 2 15 47 30 69 38 58 21 -16 -27 43 0 101 46 36
28 71 50 78 47 8 -3 16 2 19 10 4 9 11 16 17 16 7 0 8 -6 1 -18z m20 -31 c-11
-20 -111 -101 -124 -101 -3 0 17 21 46 48 29 26 59 55 67 64 19 22 25 16 11
-11z m-629 -3 c-6 -6 -15 -8 -19 -4 -4 4 -1 11 7 16 19 12 27 3 12 -12z m465
-13 c-15 -14 -33 -25 -39 -25 -14 0 -6 8 29 31 39 25 43 22 10 -6z m207 1 c-3
-8 -13 -17 -22 -21 -13 -5 -13 -2 3 15 21 24 26 25 19 6z m120 -22 c3 -8 2
-13 -3 -10 -5 3 -20 -10 -35 -28 -15 -21 -21 -36 -15 -38 14 -5 -100 -80 -153
-103 -21 -8 -45 -15 -55 -15 -10 1 9 12 41 25 33 14 67 32 76 40 9 8 20 15 24
15 13 0 56 37 49 43 -5 5 53 87 62 87 1 0 6 -7 9 -16z m103 -52 c-20 -20 -37
-34 -37 -30 0 13 62 79 68 73 3 -3 -11 -22 -31 -43z m-276 25 c-6 -8 -8 -16
-5 -19 9 -9 -29 -48 -46 -48 -10 1 -4 9 15 25 17 14 24 25 16 25 -11 0 -11 3
-1 15 7 8 17 15 22 15 7 0 6 -5 -1 -13z m89 -22 c0 -17 -50 -57 -65 -52 -9 4
-14 3 -10 -3 10 -16 -94 -58 -155 -63 -33 -3 -47 -2 -35 3 45 18 61 23 72 21
6 -1 28 8 48 19 20 11 41 18 46 14 5 -3 8 0 7 8 -2 7 6 13 17 13 11 1 19 6 18
13 -2 6 4 9 12 6 8 -4 17 1 21 10 6 15 24 23 24 11z m-175 -35 c-16 -11 -34
-20 -38 -20 -14 0 4 21 27 30 37 15 42 11 11 -10z m395 -3 c0 -2 -12 -14 -27
-28 l-28 -24 24 28 c23 25 31 32 31 24z m54 -11 c-3 -8 -24 -27 -47 -42 -23
-15 -46 -33 -50 -41 -4 -7 -14 -13 -21 -13 -7 0 -30 -11 -50 -25 -42 -28 -47
-30 -43 -13 1 7 17 20 35 29 18 8 29 19 25 24 -5 4 -2 5 5 1 8 -5 27 4 49 21
33 26 95 71 100 72 1 1 0 -5 -3 -13z m-202 -55 c-29 -26 -79 -56 -112 -69 -33
-13 -60 -28 -60 -34 0 -6 6 -8 13 -5 50 18 53 13 7 -12 -30 -17 -51 -30 -47
-31 5 0 17 5 28 11 26 14 131 41 136 35 6 -5 -69 -31 -81 -28 -5 2 -16 -3 -25
-11 -31 -26 -86 -35 -141 -24 -34 6 -47 13 -38 18 9 6 6 9 -10 9 -14 0 -21 -4
-17 -10 4 -7 -3 -8 -22 -4 -36 9 -38 11 -38 40 -1 13 -5 24 -10 23 -20 -1 -74
-31 -91 -50 -21 -23 -36 -25 -27 -2 4 11 3 14 -6 9 -6 -4 -19 -5 -28 -2 -14 6
-13 9 7 23 17 12 25 13 28 5 4 -14 22 -6 22 9 0 6 -4 8 -9 4 -5 -3 -13 0 -16
6 -4 5 -14 8 -24 4 -11 -4 -13 -3 -5 5 8 8 19 8 39 0 30 -12 85 -5 85 11 0 5
7 9 15 9 8 0 15 -4 15 -10 0 -12 67 -13 74 -1 3 4 16 6 28 4 13 -2 53 7 90 20
37 13 65 20 62 15 -9 -14 -91 -48 -149 -60 l-50 -11 30 -13 c17 -7 53 -13 80
-12 28 0 41 2 30 5 -27 7 -44 23 -24 23 26 0 211 97 248 130 19 17 37 28 40
24 3 -3 -18 -27 -47 -53z m258 50 c0 -5 -7 -12 -16 -15 -14 -5 -15 -4 -4 9 14
17 20 19 20 6z m-795 -21 c-4 -7 2 -9 18 -5 14 4 28 2 31 -4 4 -6 19 -11 34
-11 20 0 23 -3 13 -9 -9 -6 -22 -6 -33 0 -9 5 -35 6 -58 3 -32 -5 -40 -4 -40
9 0 8 6 18 13 20 21 9 28 8 22 -3z m215 -10 c-20 -13 -33 -13 -25 0 3 6 14 10
23 10 15 0 15 -2 2 -10z m374 -3 c-2 -7 -14 -18 -25 -25 -19 -12 -20 -12 -3
13 17 26 37 35 28 12z m-434 -17 c-20 -13 -43 -13 -35 0 3 6 16 10 28 10 18 0
19 -2 7 -10z m514 -78 c-52 -47 -163 -114 -178 -109 -6 3 1 10 16 16 35 13
162 97 178 116 7 8 15 15 19 15 3 0 -13 -17 -35 -38z m-177 2 c-3 -3 -12 -4
-19 -1 -8 3 -5 6 6 6 11 1 17 -2 13 -5z m353 -28 c-25 -13 -49 -22 -54 -18 -5
3 11 13 35 23 62 25 72 22 19 -5z m-740 -26 c0 -5 -2 -10 -4 -10 -3 0 -8 5
-11 10 -3 6 -1 10 4 10 6 0 11 -4 11 -10z m634 -4 c-11 -8 -34 -17 -50 -21
-25 -4 -23 -2 11 14 48 23 67 27 39 7z m-204 -1 c0 -2 -10 -10 -22 -16 -21
-11 -22 -11 -9 4 13 16 31 23 31 12z m105 -5 c-3 -5 -11 -10 -16 -10 -6 0 -7
5 -4 10 3 6 11 10 16 10 6 0 7 -4 4 -10z m-675 -20 c8 -5 11 -10 5 -10 -5 0
-17 5 -25 10 -8 5 -10 10 -5 10 6 0 17 -5 25 -10z m665 -10 c-7 -11 -128 -70
-144 -70 -6 0 -11 -4 -11 -10 0 -5 -18 -10 -39 -10 -32 0 -44 -6 -66 -31 -14
-17 -24 -33 -22 -35 2 -2 30 0 63 5 32 5 49 9 37 10 -13 0 -23 6 -23 11 0 6 3
9 8 8 4 -1 18 2 32 5 14 4 34 8 45 10 11 2 30 9 43 16 13 7 28 10 35 7 7 -2 5
-5 -4 -5 -9 -1 -19 -12 -23 -24 -3 -13 -16 -29 -28 -36 -18 -9 -18 -10 -3 -6
11 4 47 13 80 21 33 8 68 19 77 24 25 14 32 12 19 -4 -7 -8 -23 -17 -36 -20
-14 -4 -25 -11 -25 -16 0 -13 17 -13 25 0 8 12 25 13 25 1 0 -8 -29 -21 -55
-26 -5 0 -21 -5 -35 -10 -25 -8 -80 -14 -80 -9 0 2 12 10 28 19 25 15 26 15 2
8 -42 -13 -223 -10 -228 5 -2 6 -11 12 -19 12 -28 0 4 -26 47 -39 32 -9 40
-16 35 -30 -4 -15 0 -17 25 -13 17 2 33 8 36 13 3 5 10 9 15 9 6 0 8 -4 4 -9
-10 -17 12 -22 42 -9 41 16 86 22 78 9 -3 -6 -15 -11 -25 -11 -10 0 -21 -4
-25 -9 -3 -5 18 -12 47 -14 87 -8 117 -5 111 8 -2 7 0 16 6 20 7 3 11 -2 11
-14 0 -26 8 -27 27 -3 9 10 11 11 7 2 -8 -16 28 10 55 40 12 13 13 13 8 -2 -8
-22 -3 -22 31 -2 17 11 10 0 -21 -31 -27 -26 -47 -49 -45 -51 2 -1 26 16 53
39 l49 42 -34 -60 -34 -59 31 22 c34 24 57 29 50 10 -2 -7 5 -18 16 -24 19
-11 18 -12 -16 -25 -20 -7 -37 -17 -37 -21 0 -4 -5 -8 -12 -8 -6 0 -20 -7 -30
-16 -14 -14 -20 -14 -33 -4 -13 11 -14 10 -10 -3 5 -10 1 -15 -11 -14 -10 1
-20 -6 -22 -15 -2 -12 3 -18 15 -18 10 -1 48 -2 85 -3 47 -1 69 2 73 11 2 6 9
12 15 12 6 0 9 -4 5 -9 -3 -5 -1 -12 5 -16 9 -5 15 15 11 38 -2 12 27 8 32 -5
3 -10 9 -10 26 0 23 13 42 8 40 -11 -3 -24 1 -37 12 -37 5 0 7 5 4 10 -3 6 -2
10 4 10 5 0 8 11 7 24 -3 22 2 25 72 37 41 8 82 20 90 29 14 13 15 13 9 -2 -6
-18 -4 -19 48 -23 42 -3 95 -18 95 -27 0 -5 4 -7 9 -3 5 3 13 0 17 -6 4 -8 9
-7 15 2 6 10 11 11 20 2 8 -8 6 -13 -11 -18 -30 -9 -24 -50 8 -49 28 1 28 -4
-3 -41 -16 -20 -27 -26 -32 -19 -6 9 -12 8 -21 -2 -7 -8 -11 -14 -10 -15 2 0
21 -3 43 -5 50 -6 63 -18 67 -60 5 -53 23 -46 19 9 -1 30 2 47 9 47 7 0 9 -8
5 -20 -4 -11 -2 -20 4 -20 15 0 14 -60 -1 -62 -23 -2 -33 -5 -55 -14 l-22 -9
25 -12 c13 -6 22 -7 18 -2 -3 5 11 9 30 9 36 0 66 -20 79 -53 3 -9 17 -17 29
-18 22 0 22 -1 3 -9 -13 -5 -26 -3 -36 6 -21 18 -33 18 -25 -1 4 -12 2 -13
-13 -6 -12 7 -18 6 -17 -2 0 -15 46 -60 46 -45 0 6 9 8 21 5 15 -4 19 -2 15 9
-5 12 2 15 31 12 20 -2 38 -9 41 -16 3 -9 -3 -11 -22 -6 -40 10 -31 -10 18
-41 27 -17 46 -37 49 -52 4 -22 2 -21 -31 12 -35 35 -66 49 -41 18 13 -14 11
-14 -19 1 -19 10 -36 15 -39 12 -3 -3 6 -11 20 -17 14 -6 28 -18 31 -25 5 -12
2 -12 -17 0 -14 8 -31 10 -47 6 -14 -5 -19 -8 -12 -9 6 -1 12 -5 12 -9 0 -4
-30 -6 -66 -4 -49 3 -69 1 -75 -9 -7 -11 -9 -11 -9 -1 0 9 -7 11 -21 7 -13 -5
-19 -3 -15 3 8 13 -102 6 -118 -7 -7 -6 -16 -8 -19 -4 -4 3 -13 0 -22 -7 -9
-7 -19 -10 -22 -6 -4 4 -1 11 7 16 8 5 11 12 7 16 -4 4 -16 -5 -28 -20 -14
-18 -25 -24 -31 -18 -7 7 -16 4 -28 -8 -10 -10 -23 -19 -31 -22 -8 -3 -9 -9
-4 -18 14 -23 14 -100 -1 -114 -10 -10 -10 -16 -1 -26 9 -10 9 -14 0 -17 -7
-3 -13 -11 -13 -19 0 -9 5 -12 10 -9 6 3 10 1 10 -4 0 -7 -40 -11 -112 -11
-94 0 -118 3 -145 19 -17 11 -39 17 -50 15 -15 -4 -18 2 -20 33 -2 21 -4 47
-5 58 -1 11 1 37 5 59 7 31 5 42 -10 57 -10 10 -25 26 -32 35 -9 11 -16 13
-19 6 -2 -8 -11 -8 -30 0 -15 6 -44 10 -64 9 -20 0 -40 4 -43 9 -10 16 -52 12
-70 -6 -13 -14 -14 -19 -3 -26 8 -5 0 -6 -22 -3 -19 4 -49 1 -65 -5 -28 -11
-28 -13 -10 -21 15 -6 11 -8 -18 -6 -24 1 -43 -5 -55 -17 -9 -9 -12 -16 -7
-15 6 1 35 0 65 -1 33 -2 -10 -8 -107 -16 -175 -14 -211 -24 -231 -67 -15 -31
-6 -30 -130 -16 -116 13 -248 53 -262 80 -7 12 -7 39 0 81 12 78 12 78 0 78
-5 0 -10 -4 -10 -9 0 -6 -10 -27 -22 -47 -22 -37 -22 -37 -29 -13 -4 14 0 33
8 47 9 14 10 22 2 22 -15 0 -1 59 23 93 16 23 17 27 4 27 -18 0 -19 2 -10 24
3 9 13 16 21 16 9 0 11 -5 7 -12 -5 -9 -3 -9 9 1 9 7 15 16 12 20 -2 4 2 19
10 34 11 22 11 25 -1 20 -8 -3 -14 1 -14 10 0 8 5 17 10 19 6 2 11 14 12 28 1
14 13 38 27 55 24 27 23 27 -16 -5 -23 -19 -42 -41 -42 -48 -1 -14 -25 -42
-36 -42 -4 0 3 16 16 36 l22 36 -24 -7 -24 -7 25 28 c23 27 50 68 50 78 0 2
-10 2 -22 -1 -22 -5 -22 -4 3 14 14 10 36 28 49 41 28 26 61 32 40 6 -12 -13
-10 -14 13 -3 14 6 38 29 52 50 29 45 30 49 9 49 -8 0 -12 5 -9 10 5 8 11 8
20 0 9 -8 17 -3 30 17 18 28 40 46 49 41 2 -2 15 7 28 18 27 25 84 42 72 22
-4 -7 -16 -23 -27 -35 -11 -13 -18 -26 -14 -29 3 -3 16 6 28 20 25 28 59 35
59 11 0 -12 3 -12 18 3 12 11 14 20 8 24 -6 5 -2 8 10 8 11 0 24 -4 30 -9 5
-6 16 -4 28 4 17 13 17 14 -10 21 l-29 8 40 12 c22 7 64 13 93 13 46 1 57 5
88 36 24 24 44 35 65 35 31 0 99 24 99 36 0 3 -8 3 -17 -1 -10 -4 -27 -8 -38
-9 -11 -2 -44 -11 -73 -20 -29 -10 -56 -16 -59 -13 -3 4 7 9 23 13 15 4 39 13
53 20 14 8 37 14 51 14 14 0 52 9 85 20 70 22 78 23 70 10z m165 0 c0 -5 -8
-10 -17 -12 -22 -5 -54 2 -49 11 6 10 66 11 66 1z m-790 -4 c0 -2 -7 -7 -16
-10 -8 -3 -12 -2 -9 4 6 10 25 14 25 6z m107 -22 c-3 -3 -12 -4 -19 -1 -8 3
-5 6 6 6 11 1 17 -2 13 -5z m583 -4 c-8 -5 -22 -9 -30 -9 -10 0 -8 3 5 9 27
12 43 12 25 0z m-360 -10 c-8 -5 -19 -10 -25 -10 -5 0 -3 5 5 10 8 5 20 10 25
10 6 0 3 -5 -5 -10z m55 0 c-3 -5 -14 -10 -23 -10 -15 0 -15 2 -2 10 20 13 33
13 25 0z m-142 -7 c-7 -2 -19 -2 -25 0 -7 3 -2 5 12 5 14 0 19 -2 13 -5z m378
0 c-11 -5 -11 -7 0 -15 10 -7 8 -8 -6 -4 -11 3 -36 2 -55 -4 -24 -7 -31 -7
-23 1 6 6 26 15 45 19 39 9 59 11 39 3z m-311 -32 c-8 -5 -35 -5 -60 -1 l-45
7 60 1 c37 1 54 -2 45 -7z m-225 -21 c3 -5 1 -10 -4 -10 -6 0 -11 5 -11 10 0
6 2 10 4 10 3 0 8 -4 11 -10z m88 3 c-7 -2 -19 -2 -25 0 -7 3 -2 5 12 5 14 0
19 -2 13 -5z m432 -13 c-3 -5 -14 -10 -23 -9 -14 0 -13 2 3 9 27 11 27 11 20
0z m130 -50 c-3 -4 -14 -10 -25 -13 -16 -4 -19 -2 -11 7 6 7 8 15 5 19 -3 3 3
3 15 0 11 -3 19 -9 16 -13z m43 -26 c-3 -3 -28 -12 -54 -20 -57 -17 -46 1 12
21 37 12 55 12 42 -1z m1291 -29 c0 -5 -6 -1 -14 9 -8 11 -15 24 -15 30 0 5 7
1 15 -10 8 -10 14 -23 14 -29z m-1432 -1 c-3 -3 -12 -4 -19 -1 -8 3 -5 6 6 6
11 1 17 -2 13 -5z m-32 -24 c-3 -5 -12 -10 -18 -10 -7 0 -6 4 3 10 19 12 23
12 15 0z m-805 -86 c-18 -21 -24 -10 -9 18 8 14 14 18 17 10 2 -7 -2 -19 -8
-28z m1534 -5 c-3 -5 -1 -9 5 -9 5 0 11 5 13 11 4 12 38 1 38 -12 0 -17 -49
-34 -62 -21 -18 18 -21 52 -3 46 8 -4 12 -10 9 -15z m-1528 -24 c-10 -8 -23
-12 -29 -8 -11 7 12 23 33 23 12 -1 11 -4 -4 -15z m1494 5 c0 -5 -9 -10 -20
-10 -11 0 -20 5 -20 10 0 6 9 10 20 10 11 0 20 -4 20 -10z m125 -10 c3 -5 -1
-10 -9 -10 -9 0 -16 5 -16 10 0 6 4 10 9 10 6 0 13 -4 16 -10z m170 -330 c-3
-5 -1 -10 6 -10 7 0 9 -3 6 -7 -4 -3 1 -15 10 -25 14 -16 14 -18 1 -13 -8 3
-20 17 -27 31 -14 31 -14 34 0 34 5 0 7 -4 4 -10z m-1993 -211 c2 -17 -2 -25
-16 -27 -16 -4 -18 0 -12 28 5 28 4 31 -9 20 -12 -10 -15 -10 -15 3 0 40 46
19 52 -24z m2093 -49 c10 -11 14 -20 9 -20 -5 0 -15 9 -22 20 -7 11 -11 20 -9
20 2 0 12 -9 22 -20z m-1308 -36 c-3 -3 -12 -4 -19 -1 -8 3 -5 6 6 6 11 1 17
-2 13 -5z m136 -71 c-7 -2 -19 -2 -25 0 -7 3 -2 5 12 5 14 0 19 -2 13 -5z m74
-9 c-3 -3 -12 -4 -19 -1 -8 3 -5 6 6 6 11 1 17 -2 13 -5z m903 -34 c0 -5 -7
-10 -16 -10 -8 0 -12 5 -9 10 3 6 10 10 16 10 5 0 9 -4 9 -10z m583 -40 c4
-15 0 -20 -14 -20 -17 0 -18 3 -7 20 7 11 13 20 14 20 1 0 4 -9 7 -20z m-193
-5 c7 -9 10 -18 6 -22 -3 -3 -6 -1 -6 6 0 6 -10 16 -22 21 -16 6 -18 9 -7 9 9
1 22 -6 29 -14z m-427 -37 c34 -17 59 -21 131 -20 64 0 85 -3 77 -11 -6 -6
-26 -11 -46 -11 -19 -1 -35 -5 -35 -10 0 -4 -7 -6 -15 -2 -8 3 -23 2 -32 -2
-14 -5 -12 -8 12 -12 17 -4 29 -12 27 -19 -2 -9 5 -10 20 -6 21 6 21 5 -5 -18
-24 -21 -36 -25 -82 -22 -37 2 -65 11 -87 26 -20 15 -33 19 -35 12 -3 -8 -10
-6 -22 5 -10 9 -15 24 -12 32 4 13 2 13 -12 1 -9 -7 -17 -9 -17 -4 0 14 23 33
40 33 9 0 23 11 30 25 7 14 15 25 17 25 2 0 23 -10 46 -22z m444 -85 c-7 -82
-32 -162 -57 -184 -12 -11 -58 -21 -129 -29 -84 -10 -108 -16 -101 -26 8 -8 6
-13 -5 -18 -9 -3 -13 -2 -10 4 3 6 1 10 -4 10 -6 0 -11 -6 -11 -12 -1 -9 -5
-8 -13 3 -7 9 -30 20 -52 24 -34 7 -36 9 -15 13 14 2 28 9 32 16 6 8 8 7 8 -2
0 -11 16 -12 75 -7 41 3 85 8 97 10 13 2 44 6 69 10 46 6 47 7 74 67 17 37 30
87 33 125 2 34 7 63 10 63 3 0 2 -30 -1 -67z m173 30 c0 -10 -20 -40 -20 -31
0 3 -3 13 -6 22 -4 11 -1 16 10 16 9 0 16 -3 16 -7z m-1430 -13 c0 -5 -2 -10
-4 -10 -3 0 -8 5 -11 10 -3 6 -1 10 4 10 6 0 11 -4 11 -10z m604 -135 c4 -46
3 -63 -3 -50 -9 19 -15 133 -7 124 2 -2 6 -35 10 -74z m-844 -5 c0 -5 -18 -10
-40 -10 -22 0 -40 5 -40 10 0 6 18 10 40 10 22 0 40 -4 40 -10z m1110 -70 c0
-5 -4 -10 -10 -10 -5 0 -10 5 -10 10 0 6 5 10 10 10 6 0 10 -4 10 -10z m80 0
c0 -5 -4 -10 -10 -10 -5 0 -10 5 -10 10 0 6 5 10 10 10 6 0 10 -4 10 -10z
m-142 -27 c-10 -2 -28 -2 -40 0 -13 2 -5 4 17 4 22 1 32 -1 23 -4z m-43 -73
c9 14 35 12 70 -6 16 -8 37 -13 47 -11 9 3 27 -2 39 -11 12 -8 19 -10 15 -4
-3 6 -2 13 3 16 5 4 12 2 16 -4 3 -5 17 -10 31 -10 19 0 24 -5 24 -24 0 -13 3
-32 6 -40 4 -11 2 -15 -7 -11 -20 7 -39 -38 -23 -53 19 -17 23 -15 19 13 -3
30 6 32 22 6 10 -15 9 -20 -2 -25 -8 -3 -15 -11 -15 -18 -1 -7 -12 -26 -25
-43 -22 -26 -25 -27 -25 -10 -1 20 -1 20 -15 1 -8 -10 -12 -22 -10 -27 3 -4 0
-11 -6 -15 -8 -4 -9 -3 -5 4 4 7 1 12 -9 12 -9 0 -13 5 -10 11 4 6 -3 13 -15
16 -12 3 -19 11 -16 19 3 7 0 15 -7 17 -7 2 -8 8 -4 13 5 5 14 1 21 -9 17 -22
26 -22 26 3 0 15 -7 20 -28 20 -15 0 -33 5 -40 12 -9 9 -12 9 -12 0 0 -7 -6
-12 -13 -12 -10 0 -12 10 -9 33 3 17 1 29 -3 25 -5 -5 -15 1 -22 12 -8 11 -19
17 -25 14 -6 -4 -8 -2 -4 4 3 6 2 13 -4 17 -6 4 -8 10 -5 15 3 5 0 21 -5 36
-9 23 -9 25 4 15 10 -8 16 -9 21 -1z m294 -99 c9 -6 10 -11 2 -15 -13 -8 -31
1 -31 15 0 11 11 11 29 0z m5 -46 c3 -8 1 -15 -4 -15 -6 0 -10 7 -10 15 0 8 2
15 4 15 2 0 6 -7 10 -15z m-44 -75 c0 -5 -4 -10 -10 -10 -5 0 -10 5 -10 10 0
6 5 10 10 10 6 0 10 -4 10 -10z m-495 -10 c3 -5 1 -10 -4 -10 -6 0 -11 5 -11
10 0 6 2 10 4 10 3 0 8 -4 11 -10z m442 -52 c-3 -8 -6 -5 -6 6 -1 11 2 17 5
13 3 -3 4 -12 1 -19z m-447 -598 c0 -5 -4 -10 -10 -10 -5 0 -10 5 -10 10 0 6
5 10 10 10 6 0 10 -4 10 -10z m-980 -1040 c8 -5 11 -10 5 -10 -5 0 -17 5 -25
10 -8 5 -10 10 -5 10 6 0 17 -5 25 -10z m73 -59 c37 -14 67 -51 67 -83 0 -15
-3 -28 -7 -29 -5 0 -17 -2 -28 -4 -30 -6 -57 5 -51 21 3 8 -1 14 -9 14 -8 0
-15 5 -15 11 0 5 -10 9 -22 7 -29 -4 -37 32 -13 56 19 18 42 20 78 7z m766
-22 c-25 -16 -32 -9 -13 12 12 13 20 16 22 9 3 -7 -2 -16 -9 -21z m-52 -51
c-15 -18 -56 -74 -92 -125 -36 -50 -74 -97 -83 -104 -14 -11 -15 -11 -4 1 6 8
12 21 12 30 0 14 38 63 141 183 46 53 65 64 26 15z m-319 -220 c-3 -15 -29
-37 -44 -38 -19 0 -47 27 -40 38 10 17 87 16 84 0z m2717 -106 c-3 -3 -11 0
-18 7 -9 10 -8 11 6 5 10 -3 15 -9 12 -12z m-207 -196 c-7 -8 -15 -12 -17 -11
-5 6 10 25 20 25 5 0 4 -6 -3 -14z m-1943 -38 c15 -49 45 -68 106 -68 37 0 61
5 69 15 6 8 22 17 33 21 12 4 34 15 50 26 15 11 27 17 27 13 0 -3 -13 -48 -29
-98 -16 -51 -32 -104 -35 -119 -6 -28 -20 -36 -31 -18 -19 30 -218 -13 -285
-61 l-40 -29 -5 25 c-3 14 -8 37 -11 53 l-6 27 -13 -30 c-7 -16 -17 -43 -21
-60 -5 -16 -20 -35 -34 -41 -87 -42 -92 -42 -95 -6 0 9 -5 23 -9 30 -4 7 -5
20 -2 28 3 9 1 12 -4 9 -6 -3 -10 -13 -10 -21 0 -13 -2 -13 -17 1 -10 11 -27
15 -45 13 -15 -3 -28 -2 -28 2 0 9 71 74 105 96 17 10 39 29 50 41 11 13 26
23 33 23 7 0 12 5 12 10 0 6 8 10 18 10 10 0 23 5 30 12 15 15 21 8 24 -24 3
-39 19 -25 58 50 21 39 45 72 60 79 34 17 38 16 45 -9z m332 -144 c-3 -3 -12
-4 -19 -1 -8 3 -5 6 6 6 11 1 17 -2 13 -5z m33 -44 c0 -14 -7 -20 -22 -20 -20
0 -21 1 -3 20 10 11 20 20 22 20 1 0 3 -9 3 -20z m945 -40 c3 -5 1 -10 -4 -10
-6 0 -11 5 -11 10 0 6 2 10 4 10 3 0 8 -4 11 -10z m-980 -10 c-3 -5 -10 -10
-16 -10 -5 0 -9 5 -9 10 0 6 7 10 16 10 8 0 12 -4 9 -10z m-772 -122 c10 -12
17 -37 17 -65 0 -35 -6 -49 -26 -68 -28 -26 -36 -28 -71 -19 -29 8 -63 63 -63
101 0 29 28 64 60 76 24 9 64 -2 83 -25z"/>
<path d="M3794 6868 l-19 -23 23 19 c21 18 27 26 19 26 -2 0 -12 -10 -23 -22z"/>
<path d="M3640 6565 c7 -8 19 -15 27 -15 13 0 13 3 3 15 -7 8 -19 15 -27 15
-13 0 -13 -3 -3 -15z"/>
<path d="M3770 6530 c0 -5 7 -10 16 -10 8 0 12 5 9 10 -3 6 -10 10 -16 10 -5
0 -9 -4 -9 -10z"/>
<path d="M3718 6338 c14 -7 26 -8 32 -2 5 5 -4 10 -23 11 -30 1 -31 1 -9 -9z"/>
<path d="M4173 6188 c-23 -29 -40 -55 -37 -58 6 -5 67 62 85 93 20 35 -7 15
-48 -35z"/>
<path d="M4224 6178 l-19 -23 23 19 c21 18 27 26 19 26 -2 0 -12 -10 -23 -22z"/>
<path d="M4265 6160 c-3 -6 1 -7 9 -4 18 7 21 14 7 14 -6 0 -13 -4 -16 -10z"/>
<path d="M4149 6113 c-13 -16 -12 -17 4 -4 9 7 17 15 17 17 0 8 -8 3 -21 -13z"/>
<path d="M4655 6120 c3 -5 11 -10 16 -10 6 0 7 5 4 10 -3 6 -11 10 -16 10 -6
0 -7 -4 -4 -10z"/>
<path d="M4200 6075 c-7 -9 -8 -15 -2 -15 5 0 12 7 16 15 3 8 4 15 2 15 -2 0
-9 -7 -16 -15z"/>
<path d="M4787 6069 c7 -7 15 -10 18 -7 3 3 -2 9 -12 12 -14 6 -15 5 -6 -5z"/>
<path d="M4870 6020 c0 -5 5 -10 10 -10 6 0 10 5 10 10 0 6 -4 10 -10 10 -5 0
-10 -4 -10 -10z"/>
<path d="M4994 5706 c-3 -8 -2 -20 2 -27 4 -7 3 -9 -3 -6 -6 4 -16 1 -22 -7
-14 -17 9 -29 36 -19 11 4 14 3 9 -6 -5 -7 -21 -10 -44 -6 -28 4 -32 3 -17 -4
31 -15 48 -12 75 9 23 19 24 21 8 34 -10 7 -18 18 -18 24 0 18 -20 24 -26 8z"/>
<path d="M4550 5635 c-1 -5 -2 -18 -1 -27 2 -11 -5 -18 -14 -18 -9 0 -13 -4
-10 -10 20 -32 49 7 34 45 -4 11 -8 16 -9 10z"/>
<path d="M5075 5630 c3 -5 11 -10 16 -10 6 0 7 5 4 10 -3 6 -11 10 -16 10 -6
0 -7 -4 -4 -10z"/>
<path d="M3856 5575 c-3 -8 -12 -12 -21 -9 -8 3 -15 4 -15 1 0 -15 31 -13 46
4 9 10 12 19 7 19 -6 0 -13 -7 -17 -15z"/>
<path d="M4555 5520 c3 -5 8 -10 11 -10 2 0 4 5 4 10 0 6 -5 10 -11 10 -5 0
-7 -4 -4 -10z"/>
<path d="M5075 4750 c3 -5 8 -10 11 -10 2 0 4 5 4 10 0 6 -5 10 -11 10 -5 0
-7 -4 -4 -10z"/>
<path d="M3761 2886 c-11 -13 -11 -17 3 -22 21 -8 25 -4 17 19 -6 17 -8 17
-20 3z"/>
<path d="M3399 7053 c-13 -15 -12 -15 9 -4 23 12 28 21 13 21 -5 0 -15 -7 -22
-17z"/>
<path d="M2860 5466 c0 -9 7 -16 16 -16 17 0 14 22 -4 28 -7 2 -12 -3 -12 -12z"/>
<path d="M3630 5220 c20 -13 33 -13 25 0 -3 6 -14 10 -23 10 -15 0 -15 -2 -2
-10z"/>
<path d="M4060 5005 c-7 -9 -11 -18 -8 -20 3 -3 11 1 18 10 7 9 11 18 8 20 -3
3 -11 -1 -18 -10z"/>
<path d="M4110 4999 c0 -5 5 -7 10 -4 6 3 10 8 10 11 0 2 -4 4 -10 4 -5 0 -10
-5 -10 -11z"/>
<path d="M3950 4760 c0 -5 7 -10 15 -10 8 0 15 5 15 10 0 6 -7 10 -15 10 -8 0
-15 -4 -15 -10z"/>
<path d="M4205 4630 c-7 -12 24 -25 83 -34 51 -8 49 8 -4 30 -39 16 -70 18
-79 4z"/>
<path d="M3591 4384 c0 -11 3 -14 6 -6 3 7 2 16 -1 19 -3 4 -6 -2 -5 -13z"/>
<path d="M3580 4341 c0 -6 5 -13 10 -16 6 -3 10 1 10 9 0 9 -4 16 -10 16 -5 0
-10 -4 -10 -9z"/>
<path d="M3181 4214 c-40 -28 -53 -79 -58 -219 -8 -216 38 -380 158 -565 68
-104 187 -233 231 -250 18 -7 42 -20 52 -29 10 -9 -22 33 -71 92 -123 148
-133 170 -133 291 0 53 -4 138 -10 189 -5 51 -12 133 -14 183 -3 69 -11 108
-31 155 -14 35 -36 88 -47 117 -22 56 -38 63 -77 36z"/>
<path d="M3630 3722 c0 -16 32 -52 46 -52 8 0 12 5 9 10 -4 6 -10 8 -15 5 -5
-3 -12 6 -16 20 -6 23 -24 36 -24 17z"/>
<path d="M3743 3723 c-15 -5 -17 -23 -4 -23 5 0 11 7 15 15 3 8 4 15 3 14 -1
0 -8 -3 -14 -6z"/>
<path d="M3721 3666 c-10 -12 -8 -19 8 -35 34 -34 58 -21 47 25 -7 27 -37 32
-55 10z"/>
<path d="M4535 3580 c-3 -5 -2 -10 4 -10 5 0 13 5 16 10 3 6 2 10 -4 10 -5 0
-13 -4 -16 -10z"/>
<path d="M4539 3558 c-8 -30 -7 -48 5 -48 7 0 16 11 18 25 4 17 1 25 -8 25 -8
0 -14 -1 -15 -2z"/>
<path d="M4404 3516 c-12 -19 -13 -29 -5 -43 10 -17 10 -17 11 3 0 11 3 24 7
28 8 7 13 36 7 36 -2 0 -11 -11 -20 -24z"/>
<path d="M6955 2980 c3 -5 28 -21 54 -36 39 -20 48 -31 47 -49 -2 -17 1 -21
16 -17 18 4 18 5 1 18 -29 21 -5 16 46 -10 77 -41 183 -88 187 -83 5 5 -100
61 -259 139 -54 26 -95 44 -92 38z"/>
<path d="M7458 2698 c33 -16 27 -29 -13 -25 -19 3 -35 0 -35 -4 0 -5 -6 -9
-12 -9 -16 -1 -73 -53 -114 -105 -49 -62 -96 -162 -114 -245 -5 -19 -18 -66
-29 -105 -12 -38 -23 -77 -26 -85 -2 -8 -12 -35 -21 -60 -9 -25 -18 -56 -20
-70 -3 -14 -14 -61 -26 -105 -11 -44 -24 -100 -29 -125 -5 -25 -17 -61 -26
-80 -10 -19 -18 -44 -18 -55 0 -11 -4 -26 -9 -33 -4 -7 -5 -25 -2 -38 4 -14 3
-23 -2 -21 -13 9 -21 -187 -9 -250 3 -18 2 -35 -3 -38 -5 -3 -7 -12 -4 -19 3
-8 -13 -61 -36 -117 -23 -57 -48 -122 -57 -144 -8 -22 -20 -49 -25 -59 -6 -10
-31 -58 -56 -105 -25 -47 -63 -120 -84 -161 -48 -93 -34 -26 21 105 5 11 18
52 31 90 12 39 29 88 37 110 8 22 19 49 23 60 4 11 15 38 26 60 10 22 19 54
20 70 4 42 28 105 45 116 11 7 10 9 -4 9 -14 0 -17 5 -12 19 3 11 1 22 -5 26
-7 4 -14 -2 -17 -14 -3 -12 -8 -21 -12 -21 -3 0 -12 -15 -19 -33 -7 -17 -17
-40 -22 -49 -6 -10 -7 -24 -4 -31 3 -10 -6 -20 -25 -28 -17 -8 -31 -20 -31
-27 0 -7 -11 -24 -25 -38 -21 -21 -29 -23 -40 -14 -12 10 -15 9 -15 -4 0 -10
-4 -14 -10 -11 -5 3 -7 0 -4 -9 3 -8 -6 -35 -21 -60 -15 -25 -24 -50 -21 -55
4 -5 0 -13 -7 -18 -18 -11 -62 -108 -71 -158 -4 -21 -14 -48 -22 -59 -8 -11
-14 -26 -14 -34 0 -25 -64 -111 -96 -128 -18 -10 -31 -22 -28 -26 3 -4 -1 -8
-8 -8 -8 0 -23 -6 -33 -14 -16 -11 -17 -17 -7 -29 10 -12 10 -16 -3 -21 -8 -3
-20 -16 -26 -28 -5 -13 -21 -41 -34 -63 -13 -22 -31 -55 -39 -72 -11 -24 -19
-31 -32 -26 -12 4 -15 2 -12 -8 3 -8 -3 -25 -12 -39 -14 -21 -22 -42 -33 -90
-2 -8 -20 -30 -45 -53 l-24 -22 24 -6 c13 -4 242 -7 509 -8 l486 -1 6 36 c3
19 3 58 0 85 -5 40 -2 58 15 88 12 21 28 62 36 92 8 30 22 77 31 104 9 28 18
88 20 135 10 208 23 279 60 320 16 17 31 85 41 179 7 61 36 140 100 271 72
147 83 175 89 226 4 27 20 94 36 150 15 55 35 132 43 171 9 39 25 98 37 132
13 38 22 91 23 139 2 74 12 117 42 190 14 32 14 32 -7 21 -15 -8 -19 -8 -15 0
4 6 3 11 -1 11 -5 0 -28 -29 -50 -63 -38 -57 -57 -107 -68 -174 -2 -12 -30
-75 -64 -140 -33 -65 -67 -143 -76 -173 -10 -30 -46 -135 -81 -234 -36 -98
-69 -201 -75 -230 -18 -87 -62 -196 -80 -196 -11 0 2 140 22 244 11 56 22 117
25 136 4 19 10 42 14 50 4 8 13 47 20 85 7 39 21 92 32 119 10 26 20 66 22 88
2 21 8 44 14 51 10 13 26 67 24 79 -1 4 3 20 9 35 7 15 11 42 10 59 -1 17 5
37 14 44 8 7 13 16 10 20 -3 4 1 22 8 40 12 27 16 30 28 18 8 -8 22 -17 31
-21 10 -3 15 -12 12 -20 -3 -8 2 -17 10 -20 11 -4 26 9 48 41 17 26 66 90 107
142 42 53 84 107 94 120 13 19 15 20 8 4 -6 -12 -7 -24 -4 -28 10 -10 35 -7
28 3 -3 6 1 13 9 18 9 6 11 15 5 31 -9 24 -34 30 -43 10 -3 -9 -13 -3 -28 16
-13 17 -35 43 -50 59 -15 16 -41 47 -59 69 -29 35 -95 79 -116 77 -4 0 2 -5
15 -11z m-33 -439 c-5 -15 -4 -19 4 -15 6 4 11 3 11 -3 0 -5 -6 -11 -12 -14
-8 -2 -1 -10 15 -17 24 -12 29 -11 42 6 12 14 11 10 -2 -18 -16 -36 -42 -56
-29 -23 4 10 -7 21 -34 35 -45 23 -47 26 -22 51 23 24 35 23 27 -2z"/>
<path d="M7802 2364 c2 -7 -6 -20 -18 -30 -54 -50 -55 -54 -40 -239 2 -22 -5
-84 -15 -138 -11 -54 -19 -109 -19 -123 0 -14 -11 -49 -24 -77 -13 -29 -36
-79 -50 -112 -15 -32 -37 -73 -50 -90 -28 -37 -163 -295 -183 -350 -19 -51
-28 -272 -12 -291 8 -10 7 -23 -2 -51 -7 -21 -14 -41 -15 -45 -1 -5 -3 -9 -4
-10 -2 -2 -4 -28 -5 -58 -2 -35 -12 -75 -29 -110 -14 -30 -26 -67 -26 -82 0
-15 -4 -29 -9 -32 -4 -3 -14 -27 -21 -53 -7 -27 -18 -54 -24 -62 -6 -8 -10
-16 -8 -18 6 -7 -41 -155 -103 -323 -14 -36 -25 -66 -25 -67 0 -2 166 -3 369
-3 284 0 371 3 379 13 6 7 13 41 16 77 4 40 12 69 21 76 8 6 12 14 8 17 -8 9
39 77 55 77 6 0 12 3 12 8 0 4 11 19 24 34 14 14 22 29 18 34 -4 4 -1 4 6 0
20 -12 40 17 50 72 7 40 6 54 -5 65 -19 19 -19 85 1 121 8 16 13 34 9 38 -3 5
1 9 8 7 30 -4 39 2 39 25 0 18 9 29 32 40 17 9 37 16 44 16 7 0 14 3 17 8 2 4
2 1 1 -5 -3 -11 15 -18 38 -14 4 0 10 -16 14 -37 4 -20 9 -41 12 -47 6 -9 7
-17 13 -55 1 -8 1 -30 1 -47 -2 -26 -6 -33 -22 -33 -11 0 -20 -7 -20 -15 0 -8
5 -15 10 -15 6 0 10 -6 10 -14 0 -8 6 -16 12 -18 7 -3 13 -22 14 -44 1 -21 5
-52 9 -67 8 -29 -19 -142 -36 -153 -15 -9 -21 -91 -9 -114 8 -15 8 -20 1 -16
-16 10 -13 0 5 -18 10 -11 34 -16 75 -16 67 0 66 -3 48 95 -5 33 -14 116 -19
185 -9 134 -45 330 -87 474 -14 49 -38 141 -53 205 -15 64 -37 152 -48 196
-11 44 -41 166 -66 270 -25 105 -63 264 -85 355 -46 192 -115 394 -165 484
-35 62 -79 122 -74 100z m351 -1476 c-15 -29 -17 -30 -24 -12 -4 10 -8 13 -8
7 -1 -22 -17 -14 -18 8 -2 17 3 20 23 16 13 -2 27 0 30 4 13 22 11 6 -3 -23z"/>
<path d="M6400 2049 c0 -5 5 -7 10 -4 6 3 10 8 10 11 0 2 -4 4 -10 4 -5 0 -10
-5 -10 -11z"/>
<path d="M6075 2030 c-3 -5 -1 -10 4 -10 6 0 11 5 11 10 0 6 -2 10 -4 10 -3 0
-8 -4 -11 -10z"/>
<path d="M3426 1998 c-7 -34 -3 -44 13 -33 13 8 15 52 2 59 -5 3 -11 -8 -15
-26z"/>
<path d="M6055 2000 c3 -5 10 -10 16 -10 5 0 9 5 9 10 0 6 -7 10 -16 10 -8 0
-12 -4 -9 -10z"/>
<path d="M969 1970 c0 -8 -3 -37 -5 -63 -12 -115 26 -247 178 -602 82 -192
235 -502 278 -564 79 -113 191 -293 186 -298 -3 -4 -6 -1 -6 5 0 6 -9 16 -20
22 -16 9 -18 8 -14 -5 8 -21 -36 -20 -62 1 -10 8 -14 13 -7 10 17 -9 23 7 7
22 -7 7 -17 13 -21 14 -15 3 -30 23 -25 36 2 8 -2 10 -14 5 -11 -4 -15 -3 -10
5 3 6 -4 18 -16 26 -13 10 -17 16 -8 16 10 0 8 6 -7 23 -11 12 -19 27 -16 33
2 7 -7 20 -20 31 -13 10 -22 24 -19 31 2 6 -1 12 -7 12 -6 0 -11 6 -11 13 0
18 -59 77 -76 77 -8 0 -14 5 -14 11 0 5 5 7 10 4 16 -10 12 12 -6 29 -8 9 -12
21 -9 26 4 6 -7 16 -24 23 -17 6 -31 15 -31 20 0 4 -4 5 -10 2 -5 -3 -10 -1
-10 4 0 9 -22 10 -72 2 -15 -2 -8 -18 22 -47 16 -16 30 -36 30 -44 0 -12 2
-13 9 -1 7 11 13 9 30 -8 11 -11 24 -21 29 -21 4 0 16 -13 26 -28 l19 -27 -26
24 c-37 34 -44 21 -7 -15 16 -16 30 -35 30 -41 0 -7 5 -13 10 -13 6 0 10 -6
10 -14 0 -7 9 -16 20 -19 12 -3 20 -14 20 -26 0 -12 5 -21 12 -21 6 0 9 -3 5
-6 -3 -4 1 -13 9 -22 10 -10 12 -18 5 -25 -7 -7 2 -19 27 -39 20 -16 38 -25
40 -19 2 6 8 9 13 6 5 -4 3 -12 -4 -20 -8 -9 -16 -10 -24 -3 -10 8 -13 6 -13
-7 0 -10 3 -15 6 -12 4 3 15 2 25 -3 10 -6 20 -6 23 -1 8 12 46 2 46 -12 0 -6
7 -18 15 -27 13 -14 12 -17 -5 -28 -11 -7 -20 -8 -20 -3 0 5 -9 11 -19 14 -17
4 -19 0 -16 -25 3 -27 2 -30 -21 -25 -13 2 -27 1 -30 -4 -2 -4 -11 -6 -19 -2
-8 3 -15 1 -15 -5 0 -5 14 -12 31 -16 45 -9 51 -8 43 7 -4 6 8 -5 28 -26 19
-20 37 -35 40 -32 3 3 4 -5 1 -17 -13 -80 -14 -98 -5 -98 6 0 13 6 15 13 4 7
6 6 6 -5 1 -9 -8 -37 -18 -62 l-20 -45 27 10 c15 6 23 7 19 3 -4 -4 -2 -14 5
-21 9 -11 9 -17 -3 -25 -12 -8 -12 -9 1 -5 8 2 32 -9 54 -25 39 -28 62 -33
102 -22 17 4 20 12 17 47 -6 91 -13 145 -27 212 -19 90 -23 110 -41 225 -29
185 -23 169 -64 166 -43 -4 -71 9 -71 32 0 10 -7 28 -16 40 -12 17 -12 22 -2
22 10 0 9 3 -2 10 -9 5 -19 5 -26 -1 -19 -15 -48 34 -105 178 -17 43 -38 94
-46 113 -27 61 -50 113 -83 185 -88 194 -129 297 -145 370 -9 44 -22 91 -28
105 -10 24 -31 126 -43 215 -6 41 -23 72 -25 45z m401 -1320 c0 -5 -2 -10 -4
-10 -3 0 -8 5 -11 10 -3 6 -1 10 4 10 6 0 11 -4 11 -10z m45 -90 c-3 -5 -11
-10 -16 -10 -6 0 -7 5 -4 10 3 6 11 10 16 10 6 0 7 -4 4 -10z"/>
<path d="M6060 1965 c0 -8 4 -15 10 -15 5 0 7 7 4 15 -4 8 -8 15 -10 15 -2 0
-4 -7 -4 -15z"/>
<path d="M6276 1963 c-6 -14 -5 -15 5 -6 7 7 10 15 7 18 -3 3 -9 -2 -12 -12z"/>
<path d="M6109 1927 c7 -7 14 -8 21 -1 6 6 2 10 -12 11 -16 2 -18 -1 -9 -10z"/>
<path d="M6119 1900 l-24 -20 28 11 c15 7 27 16 27 21 0 12 -5 10 -31 -12z"/>
<path d="M6166 1905 c-3 -8 -1 -15 4 -15 6 0 10 4 10 10 0 5 8 7 18 4 14 -5
15 -4 2 5 -20 14 -27 14 -34 -4z"/>
<path d="M4567 1703 c-4 -6 -9 -55 -12 -109 -4 -55 -10 -146 -16 -203 -5 -58
-9 -121 -8 -140 1 -36 1 -36 11 9 5 25 25 107 44 184 39 157 39 160 20 153
-18 -7 -28 17 -20 47 6 25 -10 74 -19 59z"/>
<path d="M3935 1529 c-4 -12 -17 -32 -30 -43 -12 -12 -41 -54 -64 -93 -24 -40
-47 -73 -51 -73 -15 0 -80 -67 -80 -81 0 -8 -17 -32 -38 -54 -21 -22 -49 -60
-63 -85 -13 -25 -28 -48 -34 -52 -5 -4 -10 -11 -10 -15 -1 -4 -6 -18 -13 -29
-6 -12 -8 -24 -5 -28 3 -3 1 -6 -5 -6 -6 0 -9 -7 -6 -15 4 -8 1 -15 -5 -15
-15 0 -33 -74 -25 -105 3 -14 11 -22 17 -18 6 3 7 1 3 -5 -4 -7 -14 -12 -23
-12 -13 0 -13 -3 -3 -15 7 -8 9 -15 4 -15 -4 0 -3 -5 4 -12 14 -14 16 -32 2
-23 -5 3 -7 0 -5 -7 3 -7 15 -19 27 -27 18 -11 20 -11 15 3 -4 9 -2 16 3 16 6
0 19 9 30 20 11 11 20 15 20 9 0 -5 5 -7 10 -4 6 4 8 11 5 16 -3 5 2 6 11 2
11 -4 15 -2 11 4 -4 6 1 17 10 24 14 12 16 12 8 0 -6 -11 -4 -13 9 -8 10 4 20
7 22 7 2 0 4 5 4 11 0 11 24 39 34 39 3 0 2 -7 -1 -17 -4 -11 -3 -14 5 -9 7 4
12 14 12 22 0 8 6 14 14 14 11 0 12 -8 4 -40 -13 -49 -5 -61 21 -32 10 12 23
22 30 22 11 0 13 5 15 33 1 6 5 15 11 19 5 4 10 38 12 75 1 37 3 70 4 73 1 3
1 8 0 12 0 4 11 16 26 28 26 20 27 25 50 262 12 133 21 243 19 245 -2 3 -7 -6
-11 -18z m-365 -769 c18 -12 2 -12 -25 0 -13 6 -15 9 -5 9 8 0 22 -4 30 -9z"/>
<path d="M6870 1345 c-7 -9 -8 -15 -2 -15 5 0 12 7 16 15 3 8 4 15 2 15 -2 0
-9 -7 -16 -15z"/>
<path d="M5659 1226 c7 -9 3 -20 -15 -39 -27 -30 -44 -33 -63 -14 -10 10 -11
9 -6 -5 4 -11 2 -18 -4 -18 -6 0 -11 5 -11 12 0 9 -3 9 -12 0 -9 -9 -8 -15 7
-26 16 -12 22 -12 42 1 12 8 26 12 32 9 5 -3 11 1 15 9 3 8 12 12 20 9 8 -3
17 -1 21 5 3 6 -2 11 -12 11 -11 0 -14 3 -7 8 6 4 14 16 18 27 5 16 1 21 -15
22 -15 1 -18 -1 -10 -11z"/>
<path d="M5745 1199 c-4 -6 -5 -12 -2 -15 2 -3 7 2 10 11 7 17 1 20 -8 4z"/>
<path d="M5605 1189 c-12 -19 5 -23 22 -6 16 16 16 17 1 17 -9 0 -20 -5 -23
-11z"/>
<path d="M4593 1144 c-18 -14 -33 -32 -33 -39 0 -29 -20 -24 -28 7 -9 31 -10
28 -17 -37 l-8 -70 -49 -33 c-28 -18 -56 -31 -64 -28 -8 3 -14 1 -14 -4 0 -6
-7 -10 -17 -10 -9 0 -14 -3 -11 -6 3 -3 -5 -16 -19 -30 -13 -13 -29 -38 -35
-54 -5 -17 -14 -28 -18 -25 -10 6 -25 -76 -18 -96 2 -7 14 3 25 22 12 19 38
43 57 53 20 11 36 24 36 30 0 14 49 60 56 53 3 -2 6 -14 7 -26 1 -19 8 -23 35
-20 4 0 10 -10 13 -23 5 -19 7 -17 13 17 9 48 56 184 66 190 15 10 61 116 58
135 -3 19 -4 19 -35 -6z"/>
<path d="M5387 1083 c4 -19 1 -23 -16 -23 -12 0 -20 -4 -17 -9 7 -11 -22 -23
-36 -14 -7 3 -8 1 -4 -6 8 -12 -32 -33 -47 -24 -10 6 -47 -7 -47 -17 0 -4 10
-6 22 -2 14 3 19 1 14 -6 -3 -6 -17 -9 -29 -6 -16 2 -24 -1 -24 -11 0 -8 4
-15 9 -15 4 0 8 -5 8 -11 0 -6 -7 -8 -16 -5 -10 4 -23 -1 -33 -11 -21 -23 -42
-27 -52 -11 -7 10 -9 9 -9 -3 0 -9 -7 -20 -16 -23 -10 -4 -13 -2 -7 7 4 6 -7
1 -24 -13 -17 -14 -28 -29 -25 -34 3 -5 -2 -7 -10 -3 -9 3 -24 -2 -35 -11 -10
-9 -36 -26 -58 -37 -34 -17 -145 -117 -145 -130 0 -3 -16 -29 -35 -59 -19 -30
-35 -60 -35 -66 0 -5 -4 -10 -8 -10 -4 0 -14 -16 -21 -35 -7 -19 -17 -35 -23
-35 -6 0 -8 -3 -5 -6 4 -4 -2 -23 -12 -43 -10 -20 -35 -72 -56 -116 -40 -85
-95 -174 -107 -175 -5 0 -8 32 -8 71 0 44 -4 68 -10 64 -6 -4 -10 -58 -10
-131 l0 -124 68 0 c78 0 93 8 115 65 52 134 159 333 217 402 5 7 10 16 10 20
0 12 99 113 110 113 6 0 10 7 10 15 0 8 4 15 9 15 5 0 29 19 52 43 23 23 39
34 35 23 -5 -14 -3 -17 10 -12 8 3 18 6 20 6 3 0 2 5 -1 10 -4 6 7 13 24 16
17 4 31 13 31 20 0 8 7 14 16 14 11 0 14 5 10 16 -5 13 -2 15 14 11 13 -3 20
0 20 9 0 17 5 17 32 3 18 -10 20 -9 14 6 -4 12 -2 16 8 12 9 -4 17 2 21 14 5
15 13 19 27 15 16 -4 18 -2 9 7 -16 16 -14 30 4 23 8 -3 15 -1 15 4 0 5 12 16
28 24 15 8 21 15 13 16 -11 0 -11 3 3 13 9 7 16 19 14 27 -2 11 4 14 21 12 14
-1 22 1 18 4 -4 4 1 13 11 20 16 12 16 13 0 14 -9 0 -19 -6 -21 -12 -4 -10 -8
-10 -16 2 -5 8 -7 18 -5 22 7 11 -6 71 -13 64 -4 -3 -12 2 -19 12 -12 15 -12
15 -7 -5z"/>
<path d="M5550 1090 c-12 -7 -12 -12 -3 -21 15 -15 26 -7 21 15 -2 11 -7 13
-18 6z"/>
<path d="M5503 1083 c-7 -2 -9 -11 -6 -19 7 -19 -2 -18 -22 2 -15 15 -15 14
-9 -12 9 -39 23 -64 34 -64 15 0 12 11 -7 32 -16 18 -16 19 10 14 25 -4 27 -2
23 21 -6 30 -7 32 -23 26z"/>
<path d="M5446 1036 c4 -11 1 -22 -7 -27 -8 -5 -9 -9 -4 -9 26 0 35 16 20 36
-14 17 -15 18 -9 0z"/>
<path d="M3740 740 c0 -5 5 -10 10 -10 6 0 10 5 10 10 0 6 -4 10 -10 10 -5 0
-10 -4 -10 -10z"/>
<path d="M3730 709 c-10 -6 -11 -9 -2 -9 6 0 12 -5 12 -11 0 -6 -7 -8 -16 -5
-11 4 -15 0 -12 -16 2 -13 -6 -32 -19 -45 -13 -12 -22 -32 -22 -45 1 -17 3
-18 6 -5 2 9 10 17 17 17 20 0 49 38 42 55 -3 9 1 27 10 40 16 25 7 39 -16 24z"/>
<path d="M3815 616 c-23 -8 -41 -20 -43 -30 -3 -12 -9 -15 -24 -10 -14 4 -18
3 -13 -6 4 -6 -1 -18 -11 -25 -12 -9 -14 -14 -6 -15 10 0 10 -4 0 -22 -7 -13
-11 -29 -9 -37 1 -8 -3 -12 -12 -8 -11 4 -17 -5 -22 -38 -3 -25 -11 -47 -16
-51 -5 -3 -7 -14 -4 -23 3 -10 -1 -24 -10 -31 -8 -7 -15 -19 -15 -26 0 -14
-27 -50 -64 -85 -16 -15 -17 -21 -6 -34 8 -10 9 -15 1 -15 -6 0 -11 5 -11 10
0 6 -7 10 -15 10 -8 0 -15 -7 -15 -15 0 -8 -7 -15 -15 -15 -21 0 -19 -20 3
-21 9 -1 21 -1 25 0 5 1 6 -3 2 -8 -3 -6 -12 -8 -20 -4 -8 3 -15 0 -15 -6 0
-6 4 -11 10 -11 6 0 5 -10 -2 -25 -6 -14 -15 -25 -19 -25 -15 0 -2 -34 17 -41
10 -4 97 -8 192 -8 l174 -1 -6 88 c-10 141 -10 178 -2 365 5 100 5 177 0 176
-5 -1 -27 -7 -49 -13z"/>
<path d="M4191 621 c-10 -6 -9 -10 5 -15 20 -8 25 -4 16 11 -4 7 -13 9 -21 4z"/>
<path d="M1288 598 c5 -5 16 -8 23 -6 8 3 3 7 -10 11 -17 4 -21 3 -13 -5z"/>
<path d="M4103 578 c-27 -30 -53 -82 -53 -106 0 -10 -5 -23 -11 -29 -8 -8 -8
-17 1 -33 20 -37 43 -3 48 72 3 40 12 73 24 91 23 33 19 35 -9 5z"/>
<path d="M4480 574 c0 -8 5 -12 10 -9 6 3 10 10 10 16 0 5 -4 9 -10 9 -5 0
-10 -7 -10 -16z"/>
<path d="M4190 540 c0 -5 5 -10 10 -10 6 0 10 5 10 10 0 6 -4 10 -10 10 -5 0
-10 -4 -10 -10z"/>
<path d="M4480 480 c0 -40 2 -71 4 -69 7 7 10 129 3 136 -4 3 -7 -27 -7 -67z"/>
<path d="M4273 499 c0 -45 -41 -79 -96 -79 -41 -1 -41 -1 -17 -14 50 -28 113
7 125 71 3 20 2 40 -3 45 -5 5 -9 -4 -9 -23z"/>
<path d="M4205 490 c-3 -5 -1 -10 4 -10 6 0 11 5 11 10 0 6 -2 10 -4 10 -3 0
-8 -4 -11 -10z"/>
<path d="M710 487 c0 -3 7 -24 16 -48 8 -24 17 -55 19 -69 20 -132 51 -195
113 -228 31 -15 32 -15 32 4 0 11 6 14 20 9 19 -6 20 -4 14 22 -4 15 -11 30
-16 31 -4 2 -8 10 -8 17 0 7 -11 20 -24 29 -14 8 -32 28 -41 44 -9 15 -29 35
-43 43 -20 11 -32 31 -45 77 -10 34 -22 64 -28 67 -5 4 -9 4 -9 2z"/>
<path d="M890 479 c0 -9 7 -22 15 -29 9 -7 14 -19 11 -26 -3 -7 -1 -16 3 -18
9 -6 34 44 26 52 -3 3 -5 -1 -5 -9 -1 -8 -11 -1 -25 16 -17 21 -25 25 -25 14z"/>
<path d="M4160 480 c0 -5 5 -10 11 -10 5 0 7 5 4 10 -3 6 -8 10 -11 10 -2 0
-4 -4 -4 -10z"/>
<path d="M4327 484 c-4 -4 -7 -14 -7 -23 0 -11 3 -12 11 -4 6 6 10 16 7 23 -2
6 -7 8 -11 4z"/>
<path d="M1436 471 c-4 -6 -12 -9 -17 -6 -5 4 -9 1 -9 -4 0 -6 7 -12 15 -12
24 -2 29 -4 43 -13 10 -6 13 -4 10 8 -1 10 -7 16 -12 16 -5 -1 -12 4 -16 10
-6 9 -9 9 -14 1z"/>
<path d="M950 396 c0 -8 7 -16 15 -20 9 -3 15 0 15 8 0 8 -7 16 -15 20 -9 3
-15 0 -15 -8z"/>
<path d="M980 330 c45 -39 62 -39 25 0 -16 17 -36 30 -44 30 -10 -1 -4 -11 19
-30z"/>
<path d="M1750 280 c0 -5 6 -13 13 -17 6 -4 18 -16 26 -26 13 -17 12 -18 -15
-12 -28 6 -28 6 -10 -9 17 -14 17 -16 4 -16 -9 0 -20 -5 -24 -12 -5 -8 -2 -9
10 -5 10 4 16 2 15 -6 -3 -27 2 -39 15 -34 9 4 12 -2 10 -19 -1 -13 1 -23 4
-23 20 3 23 -3 11 -18 -12 -14 -12 -16 0 -8 11 6 13 4 8 -8 -4 -11 -1 -17 8
-17 7 0 17 -9 20 -20 7 -22 20 -24 171 -22 83 1 94 3 119 26 15 14 25 31 22
38 -2 7 5 23 16 35 l20 22 -31 -4 c-18 -2 -34 1 -38 6 -3 5 -10 7 -15 4 -5 -4
-16 1 -25 10 -9 9 -22 14 -30 11 -7 -3 -14 0 -17 7 -2 7 -24 11 -56 11 -35 0
-50 3 -47 11 2 6 -5 17 -16 24 -11 7 -18 8 -14 3 3 -5 1 -22 -4 -38 -4 -16 -9
-21 -9 -11 -1 17 -12 21 -40 17 -13 -1 -13 1 -1 15 12 15 12 16 -4 13 -10 -2
-23 6 -30 17 -11 21 -54 65 -62 65 -2 0 -4 -4 -4 -10z m55 -100 c3 -5 1 -10
-4 -10 -6 0 -11 5 -11 10 0 6 2 10 4 10 3 0 8 -4 11 -10z m130 -39 c3 -5 2
-12 -3 -15 -5 -3 -9 1 -9 9 0 17 3 19 12 6z"/>
<path d="M1084 135 c19 -14 18 -15 -5 -24 l-24 -9 28 -11 c15 -6 39 -14 52
-17 14 -3 35 -18 48 -33 28 -33 51 -43 84 -35 l26 7 -24 18 c-13 10 -29 19
-35 19 -6 0 -32 18 -57 41 -26 22 -61 44 -79 49 -30 9 -31 8 -14 -5z"/>
<path d="M1700 129 c0 -12 7 -31 17 -41 10 -12 12 -18 4 -18 -8 0 -11 -11 -9
-27 3 -27 6 -28 67 -31 48 -2 62 0 59 10 -3 7 -12 13 -21 13 -8 0 -27 11 -40
25 -14 14 -33 31 -42 39 -9 7 -14 15 -11 18 3 3 12 0 21 -7 8 -7 15 -10 15 -7
0 3 -13 15 -30 27 l-30 21 0 -22z"/>
<path d="M2838 113 c-6 -7 -7 -28 -4 -47 4 -22 2 -37 -5 -41 -8 -5 -9 -1 -4
14 4 12 2 21 -4 21 -6 0 -11 -6 -11 -13 0 -7 -12 -18 -27 -23 -26 -9 -25 -10
22 -14 86 -6 119 -4 123 8 2 7 9 9 15 5 8 -4 8 -1 -1 9 -7 8 -11 26 -10 39 2
18 -1 23 -14 21 -9 -1 -19 6 -23 17 -7 22 -40 24 -57 4z"/>
<path d="M2170 91 c0 -6 4 -12 8 -15 5 -3 9 1 9 9 0 8 -4 15 -9 15 -4 0 -8 -4
-8 -9z"/>
</g>
</svg>
